<?xml version="1.0" encoding="utf-8"?>
<!-- Generator: Adobe Illustrator 16.0.0, SVG Export Plug-In . SVG Version: 6.00 Build 0)  -->
<!DOCTYPE svg PUBLIC "-//W3C//DTD SVG 1.1//EN" "http://www.w3.org/Graphics/SVG/1.1/DTD/svg11.dtd">
<svg version="1.1" id="Layer_1" xmlns="http://www.w3.org/2000/svg" xmlns:xlink="http://www.w3.org/1999/xlink" x="0px" y="0px"
	 width="517.315px" height="501.921px" viewBox="35.748 62.381 517.315 501.921"
	 enable-background="new 35.748 62.381 517.315 501.921" xml:space="preserve">
<path fill="#6FBE44" d="M407.773,69.381c75.998,0,137.605,61.607,137.605,137.605c0,75.997-61.607,137.605-137.605,137.605
	c-75.996,0-137.604-61.608-137.604-137.605C270.169,130.988,331.777,69.381,407.773,69.381"/>
<path fill="#0086B8" d="M181.353,69.381c75.996,0,137.605,61.607,137.605,137.605c0,75.997-61.609,137.605-137.605,137.605
	c-75.998,0-137.605-61.608-137.605-137.605C43.748,130.988,105.355,69.381,181.353,69.381"/>
<path fill="#FFFFFF" d="M333.642,176.196v-0.237c0-18.946,13.264-34.815,34.105-34.815s34.105,15.869,34.105,34.815v0.237
	c0,18.947-13.738,34.815-34.105,34.815C347.38,211.25,333.642,195.381,333.642,176.196 M449.695,143.039h27l-56.131,68.446
	l-45,56.132h-27l54.947-67.025L449.695,143.039z M358.273,175.959v0.237c0,7.579,4.738,12.315,9.238,12.315
	c4.736,0,9.236-4.736,9.236-12.315v-0.237c0-7.578-4.264-12.315-9.236-12.315C362.537,163.644,358.273,168.381,358.273,175.959
	 M423.642,234.696v-0.237c0-18.947,13.264-34.815,34.105-34.815s34.105,15.868,34.105,34.815v0.237
	c0,18.947-13.738,34.815-34.105,34.815C437.142,269.512,423.642,253.881,423.642,234.696 M466.748,234.696v-0.237
	c0-7.578-4.264-12.315-9.236-12.315c-5.211,0-9.238,4.737-9.238,12.315v0.237c0,7.579,4.738,12.315,9.238,12.315
	C462.248,247.012,466.748,242.275,466.748,234.696"/>
<path fill="#FFFFFF" d="M254.538,211.959v-63.236l-74.369-28.185l-75.315,28.185v67.026c0,0-4.974,52.579,75.553,84.552
	C264.721,264.538,254.538,211.959,254.538,211.959 M154.115,155.117c8.765-9.475,18.711-11.605,25.106-11.605
	c7.343,0,18.71,1.896,27.71,13.026c9.237,11.132,7.579,23.211,7.579,29.843h-15.631v-9.474c-0.711-9.711-9-17.526-18.948-17.526
	c-9.947,0-18.236,7.815-18.947,17.526v9.474h-15.395C145.589,179.749,144.406,165.538,154.115,155.117 M222.326,252.934
	c0,2.604-2.131,4.736-4.736,4.736h-75.552c-2.606,0-4.737-2.132-4.737-4.736v-55.422c0-2.604,2.131-4.736,4.737-4.736h75.788
	c2.605,0,4.738,2.132,4.738,4.736v55.422H222.326z"/>
<path fill="#FFFFFF" d="M179.931,208.644c-5.92,0-10.895,4.974-10.895,10.896c0,3.789,1.895,6.867,4.737,9v11.367h12.315v-11.367
	c2.842-1.896,4.737-5.211,4.737-9C190.827,213.381,186.089,208.644,179.931,208.644"/>
<path fill="#FBA242" d="M295.748,283.012c75.996,0,137.605,61.608,137.605,137.605c0,75.998-61.609,137.605-137.605,137.605
	c-75.997,0-137.605-61.607-137.605-137.605C158.142,344.62,219.75,283.012,295.748,283.012"/>
<path fill="#FFFFFF" d="M322.275,429.144v-4.5h-8.055v-36h6.396v-6.395l-36.238-17.053l-36,17.29v6.395h6.633v36h-6.395v4.5h-4.264
	v4.026l81.473-0.237v-4.026H322.275z M271.826,424.644h-8.289v-35.525h8.289V424.644z M288.642,424.644h-8.289v-35.525h8.289
	V424.644z M284.853,381.065c-2.842,0-4.975-2.369-4.975-5.211c0-2.843,2.133-5.211,4.975-5.211s4.973,2.368,4.973,5.211
	C289.826,378.696,287.695,381.065,284.853,381.065 M305.458,424.407h-8.289v-35.526h8.289V424.407z"/>
<path fill="#FFFFFF" d="M350.931,349.565c5.922,0,7.344,2.842,7.344,8.763c0.236,29.132,0.236,58.5,0.236,87.632
	c0,0.71-0.236,1.421-0.236,2.605H209.537c0-1.422-0.236-3.079-0.236-4.737v-83.842c0-4.737,0.474-10.421,8.289-10.421
	C263.774,349.565,304.511,349.565,350.931,349.565 M216.642,440.986h134.289v-83.605H216.642V440.986z"/>
<polygon fill="#FFFFFF" points="184.431,482.196 184.195,476.038 384.328,476.038 384.328,482.196 "/>
<path fill="#FFFFFF" d="M359.22,450.696l-150.395-0.237l-24.156,23.921h199.656L359.22,450.696z M314.458,471.775h-57.316
	c-0.71,0-1.184-0.711-0.947-1.421l1.658-5.211c0.236-0.474,0.473-0.71,0.947-0.71h53.764c0.473,0,0.947,0.236,0.947,0.71
	l1.658,5.211C315.642,471.064,315.169,471.775,314.458,471.775"/>
<polygon fill="#FBA242" points="362.537,364.96 342.642,440.038 357.564,458.038 367.511,460.881 390.011,453.064 410.378,378.223 
	"/>
<path fill="#FFFFFF" d="M401.617,418.486c-3.791,13.736-7.344,27.71-11.133,41.446c-0.473,1.422-0.947,2.843-1.895,4.027
	c-1.895,2.131-4.264,3.078-6.631,2.368c-12.791-3.316-25.816-6.868-38.605-10.421c-3.789-0.947-5.686-5.211-4.5-9.475
	c2.131-7.815,4.264-15.631,6.158-23.446c4.973-18.237,9.711-36.237,14.684-54.475c0.473-2.131,1.186-4.025,1.658-6.157
	c1.42-4.5,4.973-6.868,9-5.685c7.578,2.132,15.158,4.026,22.736,6.158c4.975,1.421,9.947,2.604,14.922,4.026
	c4.262,1.184,6.156,4.974,4.973,9.947c-3.553,13.264-7.104,26.289-10.658,39.553C401.853,417.065,401.617,417.775,401.617,418.486
	 M343.589,439.328c15.395,4.263,30.791,8.289,46.184,12.553c6.633-24.395,13.027-48.553,19.658-72.948
	c-15.395-4.263-30.789-8.289-46.184-12.552C356.617,390.775,349.984,414.933,343.589,439.328 M360.406,452.354
	c-0.711,2.132,0.711,4.5,3.078,5.211c2.133,0.71,4.5-0.711,5.211-2.843s-0.711-4.5-2.842-5.211
	C363.484,448.802,361.117,449.986,360.406,452.354 M387.406,368.749c1.658,0.474,3.316,0.947,4.975,1.421
	c1.184,0.237,1.893-0.237,2.131-1.184c0.236-0.948-0.238-1.896-1.186-2.132c-3.314-0.947-6.867-1.895-10.184-2.843
	c-1.184-0.236-1.895,0-2.131,1.185c-0.238,0.947,0.236,1.658,1.184,2.132C384.089,368.038,385.748,368.275,387.406,368.749"/>
<path fill="#FFFFFF" d="M390.958,430.565l0.709-2.606l-4.025-1.184l5.211-19.658l3.314,0.948l0.949-3.554l-15.869-14.211
	l-20.842,4.5l-0.947,3.554l3.316,0.946l-5.211,19.658l-3.316-0.947l-0.711,2.605l-2.131-0.473l-0.475,2.131l41.447,11.132
	l0.475-2.132L390.958,430.565z M366.089,421.091l-4.264-1.184l5.211-19.421l4.264,1.184L366.089,421.091z M374.617,423.224
	l-4.264-1.186l5.211-19.421l4.262,1.185L374.617,423.224z M379.117,399.065c-1.422-0.475-2.133-1.896-1.895-3.554
	c0.473-1.657,1.895-2.604,3.314-2.132c1.422,0.475,2.131,1.896,1.895,3.554C382.195,398.591,380.537,399.302,379.117,399.065
	 M383.142,425.591l-4.264-1.184l5.211-19.421l4.264,1.184L383.142,425.591z"/>
</svg>
